<?xml version="1.0" encoding="iso-8859-1"?>
<!-- Uploaded to: SVG Repo, www.svgrepo.com, Generator: SVG Repo Mixer Tools -->
<svg height="800px" width="800px" version="1.1" id="Capa_1" xmlns="http://www.w3.org/2000/svg" xmlns:xlink="http://www.w3.org/1999/xlink" 
	 viewBox="0 0 59.057 59.057" xml:space="preserve">
<g>
	<g>
		<path style="fill:#fff;" d="M41.46,19.341v0.003l-2.196,25.81h-8.213v-1.063v-8.664h1.04v8.602
			c1.769-0.241,3.679-1.151,4.521-3.036c0.033-0.187,0.305-1.04,0.406-1.301c2.928-7.363,1.95-14.96-1.373-21.994
			c-2.291-4.841-9.726-2.578-11.456,1.583c-0.043,0.023-0.088,0.036-0.131,0.062l-0.513,0.31c-0.982,0.592-1.851,1.116-2.719,1.528
			c0.437-1.736,1.016-3.519,1.678-5.107c0.583-1.396,0.106-2.96-1.05-3.83c0.494-0.751,0.698-1.65,0.505-2.518l0.469-0.196
			l-2.152-5.129l-7.469,3.135l2.154,5.127l0.467-0.197c0.286,0.438,0.679,0.78,1.131,1.031c-0.013,0.028-0.031,0.052-0.042,0.079
			c-1.528,3.668-2.656,8.082-2.941,11.518c-0.076,0.904,0.231,1.799,0.845,2.465c0.614,0.668,1.479,1.048,2.387,1.048
			c3.638,0,6.296-1.21,8.593-2.524c0.881,3.298,0.68,6.602-0.494,9.952c-3.25,0.017-6.292,0.54-9.189,1.595
			c-1.383,0.502-2.342,1.771-2.455,3.234C12.717,47.947,15.352,53.157,18,57.32c0.714,1.123,1.927,1.737,3.166,1.737
			c0.687-0.002,1.385-0.19,2.008-0.588c1.747-1.11,2.261-3.431,1.151-5.172c-2.263-3.559-3.372-6.365-3.598-9.334
			c1.439-0.313,2.623-0.459,4.206-0.445v-4.971h1.121v6.604H22.1v3.538h16.862h3.489h1.3l2.499-29.348
			C46.25,19.341,41.46,19.341,41.46,19.341z M20.442,11.735c-1.158-0.349-2.386-0.033-3.212,0.785
			c-0.241-0.142-0.455-0.322-0.626-0.546l4.181-1.755C20.86,10.749,20.729,11.283,20.442,11.735z"/>
		<circle style="fill:#fff;" cx="29.461" cy="6.854" r="6.854"/>
	</g>
</g>
</svg>