<svg width="466" height="360" viewBox="0 0 466 360" fill="none" xmlns="http://www.w3.org/2000/svg">
<path d="M153.5 85.6692C143.299 85.6692 135 93.9682 135 104.169C135 114.37 143.299 122.669 153.5 122.669C163.701 122.669 172 114.37 172 104.169C172 93.9682 163.701 85.6692 153.5 85.6692ZM153.5 117.669C146.056 117.669 140 111.613 140 104.169C140 96.7252 146.056 90.6692 153.5 90.6692C160.944 90.6692 167 96.7252 167 104.169C167 111.613 160.944 117.669 153.5 117.669Z" fill="white" stroke="white" stroke-width="0.2" stroke-miterlimit="10"/>
<path d="M153.5 95.9202C148.952 95.9202 145.251 99.6202 145.251 104.169C145.251 108.718 148.952 112.418 153.5 112.418C158.048 112.418 161.749 108.718 161.749 104.169C161.749 99.6202 158.048 95.9202 153.5 95.9202ZM153.5 107.418C151.708 107.418 150.251 105.961 150.251 104.169C150.251 102.377 151.709 100.92 153.5 100.92C155.291 100.92 156.749 102.377 156.749 104.169C156.749 105.961 155.292 107.418 153.5 107.418Z" fill="white" stroke="white" stroke-width="0.2" stroke-miterlimit="10"/>
<path d="M259.251 261.986C259.251 266.535 262.952 270.235 267.5 270.235C272.048 270.235 275.749 266.535 275.749 261.986C275.749 257.437 272.048 253.737 267.5 253.737C262.952 253.737 259.251 257.437 259.251 261.986ZM267.5 258.737C269.292 258.737 270.749 260.194 270.749 261.986C270.749 263.778 269.291 265.235 267.5 265.235C265.709 265.235 264.251 263.778 264.251 261.986C264.251 260.194 265.709 258.737 267.5 258.737Z" fill="white" stroke="white" stroke-width="0.2" stroke-miterlimit="10"/>
<path d="M267.5 280.823C262.952 280.823 259.251 284.523 259.251 289.072C259.251 293.621 262.952 297.321 267.5 297.321C272.048 297.321 275.749 293.621 275.749 289.072C275.749 284.523 272.048 280.823 267.5 280.823ZM267.5 292.321C265.708 292.321 264.251 290.864 264.251 289.072C264.251 287.28 265.709 285.823 267.5 285.823C269.291 285.823 270.749 287.28 270.749 289.072C270.749 290.864 269.292 292.321 267.5 292.321Z" fill="white" stroke="white" stroke-width="0.2" stroke-miterlimit="10"/>
<path d="M282.45 324.802C286.998 324.802 290.699 321.102 290.699 316.553C290.699 312.004 286.998 308.304 282.45 308.304C277.902 308.304 274.201 312.004 274.201 316.553C274.201 321.102 277.902 324.802 282.45 324.802ZM282.45 313.304C284.242 313.304 285.699 314.761 285.699 316.553C285.699 318.345 284.241 319.802 282.45 319.802C280.659 319.802 279.201 318.345 279.201 316.553C279.201 314.761 280.659 313.304 282.45 313.304Z" fill="white" stroke="white" stroke-width="0.2" stroke-miterlimit="10"/>
<path d="M151.003 180.832H156.003V197.503H151.003V180.832ZM151.003 27.503H156.003V10.832H151.003V27.503ZM60.168 106.667H76.838V101.667H60.168V106.667ZM230.168 101.667V106.667H246.838V101.667H230.168Z" fill="white" stroke="white" stroke-width="0.2" stroke-miterlimit="10"/>
<path d="M362.46 85.665C359.98 85.665 357.555 86.159 355.254 87.133C350.703 89.06 347.175 92.643 345.32 97.223C343.465 101.803 343.504 106.831 345.43 111.382C348.334 118.24 355.024 122.673 362.473 122.673C362.474 122.673 362.474 122.673 362.474 122.673C364.953 122.673 367.377 122.18 369.678 121.205C379.072 117.228 383.479 106.351 379.502 96.957C376.599 90.098 369.909 85.665 362.46 85.665ZM367.729 116.601C366.048 117.312 364.281 117.672 362.475 117.672C357.037 117.672 352.154 114.438 350.035 109.432C348.629 106.111 348.6 102.442 349.954 99.099C351.308 95.757 353.883 93.143 357.204 91.737C358.885 91.026 360.653 90.665 362.46 90.665C367.897 90.665 372.779 93.9 374.898 98.906C377.8 105.761 374.584 113.699 367.729 116.601Z" fill="white" stroke="white" stroke-width="0.2" stroke-miterlimit="10"/>
<path d="M457.449 63.959C441.258 25.713 403.957 1 362.422 1C348.602 1 335.089 3.755 322.257 9.188C291.738 22.108 270.666 48.095 262.776 77.894H253.247C241.598 33.707 201.296 1.027 153.5 1.027C96.627 1.027 50.357 47.297 50.357 104.17C50.357 161.043 96.627 207.311 153.5 207.311C156.84 207.311 160.142 207.146 163.402 206.833L165.13 215.672H153.663V223.672H144.003V216.331H136.166V211.401H125.5V216.331H120.943C116.565 216.331 113.003 219.894 113.003 224.271V228.334H92V223.667H71V249.667H1V308.001H83.333V302.907H88.333V344.634H102.666V337.334H113.003V338.501C113.003 341.903 115.766 344.671 119.163 344.671C119.589 344.671 119.876 344.891 119.996 345.008C120.122 345.134 120.334 345.409 120.334 345.83V353.52C120.334 356.922 123.102 359.69 126.504 359.69H144.004V356.001H302V331.667H297.333V302.673H326.663V299.336H341.333V261.669H326.663V246.332H312V234.003H316.836L363.041 207.331C376.674 207.263 390.008 204.514 402.677 199.15C428.048 188.41 447.717 168.432 458.062 142.898C468.408 117.364 468.19 89.329 457.449 63.959ZM92 233.336H94.333V254.763H92V233.336ZM35.667 303.003H6V254.669H35.667V303.003ZM45 303.003H40.667V254.669H45V303.003ZM78.333 254.763V302.909V303.003H50V254.669H78.333V254.763ZM76 249.669V228.669H87V254.763H83.333V249.669H76ZM97.667 339.636H93.334V302.909H97.667V339.636ZM83.333 297.909V259.763H113V264.336V270.669H101V287.669H113V294.003V297.909H83.333ZM113 275.669V282.669H106V275.669H113ZM113.003 332.336H102.666V302.909H113.003V332.336ZM113.003 254.763H99.333V233.336H113.003V254.763ZM118.003 269.336H127V289.003H118.003V269.336ZM139.003 302.673V308.495C137.198 306.362 134.506 305.003 131.5 305.003C126.078 305.003 121.666 309.414 121.666 314.836C121.666 320.258 126.077 324.669 131.5 324.669C134.506 324.669 137.198 323.31 139.003 321.177V325.332V354.692H126.503C125.858 354.692 125.333 354.168 125.333 353.522V345.832C125.333 344.185 124.693 342.637 123.518 341.462C122.348 340.308 120.801 339.673 119.163 339.673C118.523 339.673 118.003 339.149 118.003 338.503V294.003H139.003V302.673ZM136.334 314.836C136.334 317.501 134.166 319.669 131.501 319.669C128.836 319.669 126.667 317.501 126.667 314.836C126.667 312.171 128.835 310.003 131.501 310.003C134.165 310.003 136.334 312.171 136.334 314.836ZM139.003 289.003H132V269.336H139.003V289.003ZM139.003 234.332V241.976C137.198 239.843 134.506 238.484 131.5 238.484C126.078 238.484 121.666 242.895 121.666 248.318C121.666 253.74 126.077 258.151 131.5 258.151C134.506 258.151 137.198 256.792 139.003 254.659V255.674V264.337H118.003V224.274C118.003 222.653 119.322 221.334 120.943 221.334H139.003V234.332ZM136.334 248.317C136.334 250.982 134.166 253.15 131.501 253.15C128.836 253.15 126.667 250.982 126.667 248.317C126.667 245.652 128.835 243.483 131.501 243.483C134.165 243.483 136.334 245.652 136.334 248.317ZM326.663 266.669H336.333V294.336H326.663V266.669ZM153.5 202.311C99.384 202.311 55.357 158.285 55.357 104.168C55.357 50.051 99.384 6.026 153.5 6.026C207.616 6.026 251.643 50.052 251.643 104.169C251.643 158.286 207.616 202.311 153.5 202.311ZM144.003 228.673H266.666V246.332H264.003V241.172C264.003 237.401 260.935 234.332 257.163 234.332H144.003V228.673ZM208.336 239.332V242.836C208.336 246.604 205.271 249.669 201.503 249.669C197.735 249.669 194.67 246.604 194.67 242.836V239.332H208.336ZM144.003 239.332H189.67V242.836C189.67 249.36 194.979 254.669 201.503 254.669C208.027 254.669 213.336 249.36 213.336 242.836V239.332H257.163C258.178 239.332 259.003 240.157 259.003 241.172V250.46L253.796 255.673H144.003V239.332ZM144.003 269.336H145.666V289.003H144.003V269.336ZM144.003 302.673H259.003V318.492C259.003 319.507 258.178 320.332 257.163 320.332H231.334V308.332H171.671V320.332H144.003V302.673ZM226.335 313.332V320.332H176.672V313.332H226.335ZM144.003 325.332H257.163C260.934 325.332 264.003 322.264 264.003 318.492V302.673H267V320.098C267 324.935 263.065 328.869 258.228 328.869H144.003V325.332ZM164.334 351.003H154.004V343.332H164.334V351.003ZM252.334 351.003H228.004V343.332H252.334V351.003ZM297 351.003H257.333V338.332H223.003V351.003H169.333V338.332H149.003V351.003H144.003V333.869H258.228C265.822 333.869 272 327.691 272 320.098V302.673H292.333V331.669H278.833C277.452 331.669 276.333 332.788 276.333 334.169C276.333 335.55 277.452 336.669 278.833 336.669H297V351.003ZM321.663 251.332V261.669V297.673H144.003V294.003H176.666V264.336H144.003V260.673H255.87L265.2 251.332H321.663ZM150.667 289.003V269.336H171.667V289.003H150.667ZM271.667 246.332V228.673H298.334V246.332H271.667ZM303.334 246.332V234.003H307.001V246.332H303.334ZM315.497 229.003H303.334V223.673H158.664V220.673H329.928L315.497 229.003ZM338.589 215.673H170.225L168.38 206.235C218.227 199.001 256.643 155.99 256.643 104.17C256.643 96.878 255.877 89.763 254.431 82.895H261.584C257.348 102.839 258.951 124.223 267.485 144.381C282.521 179.898 315.766 203.73 353.7 206.951L338.589 215.673ZM453.429 141.021C443.585 165.317 424.869 184.327 400.729 194.546C388.517 199.716 375.66 202.337 362.517 202.337C362.516 202.337 362.514 202.337 362.512 202.337C322.989 202.335 287.496 178.82 272.09 142.43C250.993 92.596 274.372 34.889 324.206 13.79C336.418 8.621 349.275 5.999 362.422 5.999C401.945 5.999 437.438 29.515 452.845 65.907C463.065 90.049 463.272 116.724 453.429 141.021Z" fill="white" stroke="white" stroke-width="0.2" stroke-miterlimit="10"/>
<path d="M362.465 95.9182C361.358 95.9182 360.277 96.1392 359.252 96.5722C357.223 97.4312 355.649 99.0292 354.822 101.071C353.995 103.113 354.012 105.355 354.871 107.384C356.166 110.443 359.148 112.418 362.47 112.419C363.577 112.419 364.658 112.198 365.683 111.765C367.712 110.906 369.286 109.308 370.113 107.266C370.941 105.224 370.923 102.982 370.064 100.953C368.769 97.8942 365.787 95.9182 362.465 95.9182ZM365.479 105.389C365.153 106.194 364.534 106.823 363.733 107.161C363.328 107.332 362.902 107.42 362.469 107.42C361.16 107.42 359.985 106.641 359.475 105.436C359.137 104.637 359.13 103.753 359.455 102.95C359.781 102.145 360.4 101.516 361.2 101.178C361.605 101.007 362.031 100.919 362.464 100.919C363.773 100.919 364.948 101.698 365.459 102.903C365.798 103.701 365.805 104.585 365.479 105.389Z" fill="white" stroke="white" stroke-width="0.2" stroke-miterlimit="10"/>
<path d="M394.685 173.795L401.183 189.145L396.579 191.094L390.081 175.743L394.685 173.795ZM323.791 19.1892L330.289 34.5402L334.893 32.5912L328.395 17.2402L323.791 19.1892ZM275.557 138.241L277.506 142.845L292.857 136.345L290.908 131.741L275.557 138.241ZM447.456 65.4582L432.105 71.9582L434.054 76.5622L449.405 70.0622L447.456 65.4582Z" fill="white" stroke="white" stroke-width="0.2" stroke-miterlimit="10"/>
</svg>
