<svg width="45" height="54" viewBox="0 0 45 54" fill="none" xmlns="http://www.w3.org/2000/svg">
  <path
    d="M21.9495 8.88647C22.7821 8.89171 23.6148 8.89695 24.4727 8.90234C25.3718 8.90557 26.2709 8.90879 27.1973 8.91211C28.6156 8.92468 28.6156 8.92468 30.0625 8.9375C31.0119 8.94201 31.9613 8.94652 32.9395 8.95117C35.293 8.963 37.6465 8.98093 40 9C40 12.63 40 16.26 40 20C37.125 20.125 37.125 20.125 34 20C33.34 19.34 32.68 18.68 32 18C28.6932 18.2898 28.6932 18.2898 26 20C23.667 20.0409 21.3329 20.0424 19 20C18.9731 18.3543 18.9537 16.7084 18.9375 15.0625C18.9259 14.146 18.9143 13.2295 18.9023 12.2852C19.0247 9.42167 19.0903 9.05297 21.9495 8.88647Z"
    fill="black" />
  <path
    d="M6.5 11.75C10 12 10 12 12 14C12.2699 16.6884 12.0874 19.2914 12 22C11.34 22 10.68 22 10 22C9.01 19.36 8.02 16.72 7 14C6.01 14.495 6.01 14.495 5 15C5.66 15 6.32 15 7 15C7.30937 16.9181 7.30937 16.9181 7.625 18.875C8.09393 21.0795 8.09393 21.0795 9 23C11.9138 24.5551 11.9138 24.5551 15 25C15.66 25.33 16.32 25.66 17 26C17 26.99 17 27.98 17 29C12.492 27.7419 9.50872 26.0959 6 23C6.33 23.99 6.66 24.98 7 26C5.02 26 3.04 26 1 26C0.946109 24.042 0.907258 22.0835 0.875 20.125C0.851797 19.0345 0.828594 17.9439 0.804688 16.8203C1.10693 12.456 2.22217 12.0556 6.5 11.75Z"
    fill="black" />
  <path
    d="M7.46677 26.1889C9.81363 25.6831 10.767 26.2521 13.3339 27.2006C17.2482 32.7867 16.1379 37.6146 14.5073 43.8943C13.4708 46.9779 12.297 49.9952 10.987 53C9.43812 53 7.8892 53 6.29334 53C6.44914 52.3518 6.60494 51.7036 6.76546 51.0358C7.40835 48.3209 8.0268 45.6025 8.64019 42.8826C8.93062 41.6097 9.22104 40.3368 9.52026 39.0253C9.83816 35.5306 7.96255 33.3682 6.29337 30.2358C6.29337 28.9003 5.11992 27.7065 7.46677 26.1889Z"
    fill="black" />
  <path
    d="M3.127 27C4.50288 27.33 5.87876 27.66 7.29633 28C9.08363 37.1327 7.25699 44.2912 4.16933 53C2.79345 53 1.41757 53 0 53C0.796908 45.6094 0.796908 45.6094 2.14981 42.25C3.66143 37.2225 3.2848 32.1978 3.127 27Z"
    fill="black" />
  <path d="M24 11C27.96 11 31.92 11 36 11C36 12.65 36 14.3 36 16C31.71 16 27.42 16 23 16C23.33 14.35 23.66 12.7 24 11Z"
    fill="black" />
  <path
    d="M23 10C28.61 10 34.22 10 40 10C40 13.3 40 16.6 40 20C38.02 20 36.04 20 34 20C33.67 19.01 33.34 18.02 33 17C33.99 17 34.98 17 36 17C36 15.02 36 13.04 36 11C31.71 11 27.42 11 23 11C23 10.67 23 10.34 23 10Z"
    fill="black" />
  <path
    d="M5 14C5.66 14 6.32 14 7 14C7.20625 15.2787 8.7875 16.6825 9 18C9.46893 20.2045 10.0939 19.5795 11 21.5C19.5 26 11.9138 23.5551 15 24C15.66 24.33 16.32 24.66 17 25C17 25.99 17 26.98 17 28C12.5148 26.7483 9.18877 25.4621 6 22C5.28818 19.2679 5.14235 16.847 5 14Z"
    fill="black" />
  <path
    d="M40 10C40.33 10.66 40.66 11.32 41 12C42.32 11.67 43.64 11.34 45 11C45 13.97 45 16.94 45 20C43.35 20 41.7 20 40 20C40 16.7 40 13.4 40 10Z"
    fill="black" />
  <path
    d="M6 12C11 13 11 13 12 14C12.1412 16.6706 12.0425 19.3243 12 22C11.34 22 10.68 22 10 22C8.68 18.7 7.36 15.4 6 12Z"
    fill="black" />
  <path
    d="M25 2C27.0625 2.4375 27.0625 2.4375 29 3C29.5625 4.9375 29.5625 4.9375 30 7C29 8 29 8 26.4375 8.0625C25.231 8.03156 25.231 8.03156 24 8C23.9573 6.33388 23.9594 4.66617 24 3C24.33 2.67 24.66 2.34 25 2Z"
    fill="black" />
  <path
    d="M28 17C30.5625 17.25 30.5625 17.25 33 18C33.33 18.66 33.66 19.32 34 20C33.01 21.485 33.01 21.485 32 23C30.35 22.67 28.7 22.34 27 22C26.67 21.01 26.34 20.02 26 19C26.66 18.34 27.32 17.68 28 17Z"
    fill="black" />
  <path d="M37 10C37.99 10 38.98 10 40 10C40 13.3 40 16.6 40 20C39.01 20 38.02 20 37 20C37 16.7 37 13.4 37 10Z"
    fill="black" fill-opacity="0.694118" />
  <path
    d="M5 20C9.875 24.75 10.875 24.75 12 27C11.01 27 9.02 27 8 27C7.67 27.66 7.34 28.32 7 29C5.02 28.34 3.04 27.68 1 27C1 26.67 1 26.34 1 26C2.65 25.67 4.3 25.34 6 25C5.67 23.35 5.34 21.7 5 20Z"
    fill="black" />
  <path d="M32 4C33.32 4 34.64 4 36 4C35.67 5.65 35.34 7.3 35 9C33.68 8.34 32.36 7.68 31 7C31.33 6.01 31.66 5.02 32 4Z"
    fill="black" />
  <path d="M44 11C44 13.31 44 15.62 44 18C43.01 17.67 42.02 17.34 41 17C41 15.35 41 13.7 41 12C43 11 43 11 44 11Z"
    fill="black" />
  <circle cx="6.5" cy="5.5" r="5.5" fill="black" />
  <path
    d="M26.9998 22C29.6248 22.375 29.4764 22.375 31.8514 23C34.1403 32.6458 34.9999 43.0623 34.9999 53C40.6099 53 21.9573 53 27.7373 53C9.99903 53.2625 6.49871 53 9.99871 53C5.25619 53.076 17.7507 53.0889 10.2511 53.0889C17.7511 53.0889 10.5811 52.4289 10.2511 53.0889C10.4571 52.6724 17.9998 53.0585 2.99984 53C3.98984 50.03 1.47983 50.56 2.49983 47.5C3.15983 47.83 3.31983 47.66 3.99983 48C3.99983 50.64 7.99984 50.28 7.99984 53C8.65984 53 9.31984 53 9.99984 53C13.4585 43.1288 14.6522 36.9831 10.9998 27C13.3098 27.66 13.62 27.82 16 28.5C16.33 27.51 13.66 26.02 14 25C15.1756 24.8144 20.3006 25.1894 21.5 25C24.2656 24.5838 25.1404 24.2088 26.9998 22ZM26.9999 25C26.3399 25.66 25.6799 26.32 24.9999 27C23.145 27.6071 21.2656 28.1413 19.3749 28.625C17.8705 29.0156 17.8705 29.0156 16.3358 29.4141C15.5649 29.6074 14.7941 29.8008 13.9998 30C14.5876 31.6397 14.5876 31.6397 15.1873 33.3125C16.4397 38.1578 15.258 41.8229 13.7264 46.4844C12.8148 49.2041 12.8148 49.2041 12.9998 53C14.8123 53.0269 16.6248 53.0463 18.4373 53.0625C19.4467 53.0741 20.456 53.0857 21.496 53.0977C23.9401 53.2861 23.9401 53.2861 24.9999 52C25.6727 48.8195 26.0884 45.5905 26.5624 42.375C26.7009 41.4843 26.8395 40.5935 26.9823 39.6758C27.7226 34.7236 28.1576 30.0062 27.9999 25C27.6699 25 27.3399 25 26.9999 25ZM28.9999 31C28.0099 38.26 27.0199 45.52 25.9999 53C28.6399 53 31.2799 53 33.9999 53C33.5562 49.5188 33.0925 46.0406 32.6249 42.5625C32.4354 41.0727 32.4354 41.0727 32.2421 39.5527C32.1132 38.6085 31.9843 37.6643 31.8514 36.6914C31.7362 35.8169 31.621 34.9423 31.5023 34.0413C31.3365 33.3676 31.1707 32.694 30.9999 32C30.3399 31.67 29.6799 31.34 28.9999 31ZM5.99983 51C6.99983 53 5.99984 53 5.99984 53L5.99983 51Z"
    fill="black" />
  <path d="M0 52H35V54H17.5H0V52Z" fill="black" />
</svg>