<?xml version="1.0" encoding="iso-8859-1"?>
<!-- Uploaded to: SVG Repo, www.svgrepo.com, Generator: SVG Repo Mixer Tools -->
<svg version="1.1" id="Capa_1" xmlns="http://www.w3.org/2000/svg" xmlns:xlink="http://www.w3.org/1999/xlink" 
	 viewBox="0 0 464.866 464.866" xml:space="preserve">
<path style="stroke:#000000;stroke-width:0.2;stroke-miterlimit:10;" d="M152.6,137.757c-10.201,0-18.5,8.299-18.5,18.5
	s8.299,18.5,18.5,18.5s18.5-8.299,18.5-18.5S162.801,137.757,152.6,137.757z M152.6,169.757c-7.444,0-13.5-6.056-13.5-13.5
	s6.056-13.5,13.5-13.5s13.5,6.056,13.5,13.5S160.044,169.757,152.6,169.757z"/>
<path style="stroke:#000000;stroke-width:0.2;stroke-miterlimit:10;" d="M152.6,148.008c-4.548,0-8.249,3.7-8.249,8.249
	s3.701,8.249,8.249,8.249s8.249-3.7,8.249-8.249S157.148,148.008,152.6,148.008z M152.6,159.506c-1.792,0-3.249-1.457-3.249-3.249
	s1.458-3.249,3.249-3.249s3.249,1.457,3.249,3.249S154.392,159.506,152.6,159.506z"/>
<path style="stroke:#000000;stroke-width:0.2;stroke-miterlimit:10;" d="M258.351,314.074c0,4.549,3.701,8.249,8.249,8.249
	s8.249-3.7,8.249-8.249s-3.701-8.249-8.249-8.249S258.351,309.525,258.351,314.074z M266.6,310.825c1.792,0,3.249,1.457,3.249,3.249
	s-1.458,3.249-3.249,3.249s-3.249-1.457-3.249-3.249S264.809,310.825,266.6,310.825z"/>
<path style="stroke:#000000;stroke-width:0.2;stroke-miterlimit:10;" d="M266.6,332.911c-4.548,0-8.249,3.7-8.249,8.249
	s3.701,8.249,8.249,8.249s8.249-3.7,8.249-8.249S271.148,332.911,266.6,332.911z M266.6,344.409c-1.792,0-3.249-1.457-3.249-3.249
	s1.458-3.249,3.249-3.249s3.249,1.457,3.249,3.249S268.392,344.409,266.6,344.409z"/>
<path style="stroke:#000000;stroke-width:0.2;stroke-miterlimit:10;" d="M281.551,376.89c4.548,0,8.249-3.7,8.249-8.249
	s-3.701-8.249-8.249-8.249s-8.249,3.7-8.249,8.249S277.003,376.89,281.551,376.89z M281.551,365.392
	c1.792,0,3.249,1.457,3.249,3.249s-1.458,3.249-3.249,3.249s-3.249-1.457-3.249-3.249S279.76,365.392,281.551,365.392z"/>
<path style="stroke:#000000;stroke-width:0.2;stroke-miterlimit:10;" d="M150.103,232.92h5v16.671h-5V232.92z M150.103,79.591h5
	V62.92h-5V79.591z M59.268,158.755h16.67v-5h-16.67V158.755z M229.268,153.755v5h16.67v-5H229.268z"/>
<path style="stroke:#000000;stroke-width:0.2;stroke-miterlimit:10;" d="M361.561,137.753c-2.48,0-4.905,0.494-7.206,1.468
	c-4.551,1.927-8.079,5.51-9.934,10.09s-1.816,9.608,0.11,14.159c2.904,6.858,9.594,11.291,17.043,11.291c0.001,0,0.001,0,0.001,0
	c2.479,0,4.903-0.493,7.204-1.468c9.394-3.977,13.801-14.854,9.824-24.248C375.7,142.186,369.01,137.753,361.561,137.753z
	 M366.83,168.689c-1.681,0.711-3.448,1.071-5.254,1.071h-0.001c-5.438,0-10.32-3.234-12.439-8.24
	c-1.406-3.321-1.435-6.99-0.081-10.333c1.354-3.342,3.929-5.956,7.25-7.362c1.681-0.711,3.449-1.072,5.256-1.072
	c5.437,0,10.319,3.235,12.438,8.241C376.901,157.849,373.685,165.787,366.83,168.689z"/>
<path style="stroke:#000000;stroke-width:0.2;stroke-miterlimit:10;" d="M456.549,116.047
	c-16.191-38.246-53.492-62.959-95.027-62.959c-13.82,0-27.333,2.755-40.165,8.188c-30.519,12.92-51.591,38.907-59.481,68.706h-9.529
	c-11.649-44.187-51.951-76.867-99.747-76.867c-56.873,0-103.143,46.27-103.143,103.143S95.727,259.399,152.6,259.399
	c3.34,0,6.642-0.165,9.902-0.478l1.728,8.839h-11.467v8h-9.66v-7.341h-7.837v-4.93H124.6v4.93h-4.557c-4.378,0-7.94,3.563-7.94,7.94
	v4.063H91.1v-4.667h-21v26h-70v58.334h82.333v-5.094h5v41.727h14.333v-7.3h10.337v1.167c0,3.402,2.763,6.17,6.16,6.17
	c0.426,0,0.713,0.22,0.833,0.337c0.126,0.126,0.338,0.401,0.338,0.822v7.69c0,3.402,2.768,6.17,6.17,6.17h17.5v-3.689H301.1v-24.334
	h-4.667v-28.994h29.33v-3.337h14.67v-37.667h-14.67V298.42H311.1v-12.329h4.836l46.205-26.672
	c13.633-0.068,26.967-2.817,39.636-8.181c25.371-10.74,45.04-30.718,55.385-56.252C467.508,169.452,467.29,141.417,456.549,116.047z
	 M91.1,285.424h2.333v21.427H91.1V285.424z M34.767,355.091H5.1v-48.334h29.667V355.091z M44.1,355.091h-4.333v-48.334H44.1V355.091
	z M77.433,306.851v48.146v0.094H49.1v-48.334h28.333V306.851z M75.1,301.757v-21h11v26.094h-3.667v-5.094H75.1z M96.767,391.724
	h-4.333v-36.727h4.333V391.724z M82.433,349.997v-38.146H112.1v4.573v6.333h-12v17h12v6.334v3.906L82.433,349.997L82.433,349.997z
	 M112.1,327.757v7h-7v-7H112.1z M112.103,384.424h-10.337v-29.427h10.337V384.424z M112.103,306.851h-13.67v-21.427h13.67V306.851z
	 M117.103,321.424h8.997v19.667h-8.997V321.424z M138.103,354.761v5.822c-1.805-2.133-4.497-3.492-7.503-3.492
	c-5.422,0-9.834,4.411-9.834,9.833s4.411,9.833,9.834,9.833c3.006,0,5.698-1.359,7.503-3.492v4.155v29.36h-12.5
	c-0.645,0-1.17-0.524-1.17-1.17v-7.69c0-1.647-0.64-3.195-1.815-4.37c-1.17-1.154-2.717-1.789-4.355-1.789
	c-0.64,0-1.16-0.524-1.16-1.17v-44.5h21V354.761z M135.434,366.924c0,2.665-2.168,4.833-4.833,4.833
	c-2.665,0-4.834-2.168-4.834-4.833s2.168-4.833,4.834-4.833C133.265,362.091,135.434,364.259,135.434,366.924z M138.103,341.091
	H131.1v-19.667h7.003L138.103,341.091L138.103,341.091z M138.103,286.42v7.644c-1.805-2.133-4.497-3.492-7.503-3.492
	c-5.422,0-9.834,4.411-9.834,9.834c0,5.422,4.411,9.833,9.834,9.833c3.006,0,5.698-1.359,7.503-3.492v1.015v8.663h-21v-40.063
	c0-1.621,1.319-2.94,2.94-2.94h18.06V286.42z M135.434,300.405c0,2.665-2.168,4.833-4.833,4.833c-2.665,0-4.834-2.168-4.834-4.833
	s2.168-4.834,4.834-4.834C133.265,295.571,135.434,297.74,135.434,300.405z M325.763,318.757h9.67v27.667h-9.67V318.757z
	 M152.6,254.399c-54.116,0-98.143-44.026-98.143-98.143S98.484,58.114,152.6,58.114s98.143,44.026,98.143,98.143
	S206.716,254.399,152.6,254.399z M143.103,280.761h122.663v17.659h-2.663v-5.16c0-3.771-3.068-6.84-6.84-6.84h-113.16V280.761z
	 M207.436,291.42v3.504c0,3.768-3.065,6.833-6.833,6.833s-6.833-3.065-6.833-6.833v-3.504H207.436z M143.103,291.42h45.667v3.504
	c0,6.524,5.309,11.833,11.833,11.833s11.833-5.309,11.833-11.833v-3.504h43.827c1.015,0,1.84,0.825,1.84,1.84v9.288l-5.207,5.213
	H143.103V291.42z M143.103,321.424h1.663v19.667h-1.663V321.424z M143.103,354.761h115v15.819c0,1.015-0.825,1.84-1.84,1.84h-25.829
	v-12h-59.663v12h-27.668L143.103,354.761L143.103,354.761z M225.435,365.42v7h-49.663v-7H225.435z M143.103,377.42h113.16
	c3.771,0,6.84-3.068,6.84-6.84v-15.819h2.997v17.425c0,4.837-3.935,8.771-8.772,8.771H143.103V377.42z M163.434,403.091h-10.33
	v-7.671h10.33V403.091z M251.434,403.091h-24.33v-7.671h24.33V403.091z M296.1,403.091h-39.667V390.42h-34.33v12.671h-53.67V390.42
	h-20.33v12.671h-5v-17.134h114.225c7.594,0,13.772-6.178,13.772-13.771v-17.425h20.333v28.996h-13.5c-1.381,0-2.5,1.119-2.5,2.5
	s1.119,2.5,2.5,2.5H296.1V403.091z M320.763,303.42v10.337v36.004h-177.66v-3.67h32.663v-29.667h-32.663v-3.663H254.97l9.33-9.341
	H320.763z M149.767,341.091v-19.667h21v19.667H149.767z M270.767,298.42v-17.659h26.667v17.659H270.767z M302.434,298.42v-12.329
	h3.667v12.329H302.434z M314.597,281.091h-12.163v-5.33h-144.67v-3h171.264L314.597,281.091z M337.689,267.761H169.325l-1.845-9.438
	c49.847-7.234,88.263-50.245,88.263-102.065c0-7.292-0.766-14.407-2.212-21.275h7.153c-4.236,19.944-2.633,41.328,5.901,61.486
	c15.036,35.517,48.281,59.349,86.215,62.57L337.689,267.761z M452.529,193.109c-9.844,24.296-28.56,43.306-52.7,53.525
	c-12.212,5.17-25.069,7.791-38.212,7.791c-0.001,0-0.003,0-0.005,0c-39.523-0.002-75.016-23.517-90.422-59.907
	c-21.097-49.834,2.282-107.541,52.116-128.64c12.212-5.169,25.069-7.791,38.216-7.791c39.523,0,75.016,23.516,90.423,59.908
	C462.165,142.137,462.372,168.812,452.529,193.109z"/>
<path style="stroke:#000000;stroke-width:0.2;stroke-miterlimit:10;" d="M361.565,148.006c-1.107,0-2.188,0.221-3.213,0.654
	c-2.029,0.859-3.603,2.457-4.43,4.499c-0.827,2.042-0.81,4.284,0.049,6.313c1.295,3.059,4.277,5.034,7.599,5.035
	c1.107,0,2.188-0.221,3.213-0.654c2.029-0.859,3.603-2.457,4.43-4.499c0.828-2.042,0.81-4.284-0.049-6.313
	C367.869,149.982,364.887,148.006,361.565,148.006z M364.579,157.477c-0.326,0.805-0.945,1.434-1.746,1.772
	c-0.405,0.171-0.831,0.259-1.264,0.259c-1.309,0-2.484-0.779-2.994-1.984c-0.338-0.799-0.345-1.683-0.02-2.486
	c0.326-0.805,0.945-1.434,1.745-1.772c0.405-0.171,0.831-0.259,1.264-0.259c1.309,0,2.484,0.779,2.995,1.984
	C364.898,155.789,364.905,156.673,364.579,157.477z"/>
<path style="stroke:#000000;stroke-width:0.2;stroke-miterlimit:10;" d="M393.784,225.883l6.498,15.35l-4.604,1.949l-6.498-15.351
	L393.784,225.883z M322.89,71.277l6.498,15.351l4.604-1.949l-6.498-15.351L322.89,71.277z M274.656,190.329l1.949,4.604l15.351-6.5
	l-1.949-4.604L274.656,190.329z M446.555,117.546l-15.351,6.5l1.949,4.604l15.351-6.5L446.555,117.546z"/>
</svg>